<svg width="16" height="16" viewBox="0 0 16 16" fill="none" xmlns="http://www.w3.org/2000/svg">
<g opacity="0.5">
<path d="M8 0C3.58866 0 0 3.58866 0 8C0 12.4114 3.58866 16 8 16C12.4114 16 16 12.4114 16 8C16 3.58866 12.4114 0 8 0ZM4.66666 14.5314V12.3334C4.66666 11.782 5.11534 11.3334 5.66666 11.3334H10.3334C10.8846 11.3334 11.3334 11.782 11.3334 12.3334V14.5314C10.3326 15.044 9.19936 15.3334 8 15.3334C6.80066 15.3334 5.66734 15.044 4.66666 14.5314ZM12 14.1434V12.3334C12 11.414 11.252 10.6666 10.3334 10.6666H5.66666C4.748 10.6666 4 11.414 4 12.3334V14.1434C1.99466 12.8334 0.666666 10.5686 0.666666 8C0.666666 3.95666 3.95666 0.666666 8 0.666666C12.0434 0.666666 15.3334 3.95666 15.3334 8C15.3334 10.5686 14.0054 12.8334 12 14.1434ZM8 4C6.52934 4 5.33334 5.196 5.33334 6.66666C5.33334 8.13736 6.52934 9.33336 8 9.33336C9.47064 9.33336 10.6666 8.13736 10.6666 6.66666C10.6666 5.196 9.47064 4 8 4ZM8 8.66664C6.89734 8.66664 6 7.76934 6 6.66666C6 5.564 6.89734 4.66666 8 4.66666C9.10264 4.66666 10 5.564 10 6.66666C10 7.76934 9.10264 8.66664 8 8.66664Z" fill="#09090B"/>
</g>
</svg>
