<svg width="16" height="16" viewBox="0 0 16 16" fill="none" xmlns="http://www.w3.org/2000/svg">
<path d="M8.00012 11.194L11.2994 7.96666C12.1808 7.08534 12.6668 5.91334 12.6668 4.66666C12.6668 3.42 12.1808 2.24866 11.2994 1.36666C10.4188 0.485334 9.24676 0 8.00012 0C6.75342 0 5.58142 0.485334 4.70008 1.36666C2.88075 3.186 2.88075 6.14666 4.70275 7.96866L8.00012 11.194ZM5.17142 1.838C5.92742 1.08266 6.93208 0.666666 8.00012 0.666666C9.06812 0.666666 10.0728 1.08266 10.8281 1.838C11.5841 2.59334 12.0001 3.598 12.0001 4.66666C12.0001 5.73534 11.5841 6.73934 10.8308 7.49266L8.00012 10.262L5.17142 7.49534C3.61208 5.936 3.61208 3.39734 5.17142 1.838ZM8.00012 6.65334C9.09876 6.65334 9.9934 5.75934 9.9934 4.66C9.9934 3.56066 9.09876 2.66666 8.00012 2.66666C6.90142 2.66666 6.00675 3.56066 6.00675 4.66C6.00675 5.75934 6.90142 6.65334 8.00012 6.65334ZM8.00012 3.33334C8.73204 3.33334 9.32677 3.92866 9.32677 4.66C9.32677 5.39134 8.7314 5.98666 8.00012 5.98666C7.26875 5.98666 6.67342 5.39134 6.67342 4.66C6.67342 3.92866 7.26875 3.33334 8.00012 3.33334ZM15.9621 11.2306L8.00012 16.008L0.0380859 11.2306L3.81408 8.96536L4.33608 9.476L1.33408 11.2306L8.00076 15.2306L14.6674 11.2306L11.6794 9.46136L12.1868 8.96536L15.9634 11.2314L15.9621 11.2306Z" fill="#09090B"/>
</svg>
