<svg width="12" height="12" viewBox="0 0 12 12" fill="none" xmlns="http://www.w3.org/2000/svg">
<mask id="mask0_52_4260" style="mask-type:luminance" maskUnits="userSpaceOnUse" x="0" y="0" width="12" height="12">
<path d="M12 0H0V12H12V0Z" fill="white"/>
</mask>
<g mask="url(#mask0_52_4260)">
<mask id="mask1_52_4260" style="mask-type:luminance" maskUnits="userSpaceOnUse" x="0" y="0" width="12" height="12">
<path d="M11.5 0.5H0.5V11.5H11.5V0.5Z" fill="white"/>
</mask>
<g mask="url(#mask1_52_4260)">
<path d="M11.5 4.16667V1.41667C11.5 0.911125 11.0889 0.5 10.5833 0.5H7.83333V0.958333H10.5833C10.5985 0.958333 10.6108 0.965667 10.6255 0.967042L5.96379 5.62829L1.31446 0.978958C1.34838 0.971167 1.38046 0.958333 1.41667 0.958333H4.16667V0.5H1.41667C0.911125 0.5 0.5 0.911125 0.5 1.41667V4.16667H0.958333V1.41667C0.958333 1.37358 0.971625 1.33508 0.983083 1.29567L5.63975 5.95233L0.967042 10.6255C0.965667 10.6108 0.958333 10.5985 0.958333 10.5833V7.83333H0.5V10.5833C0.5 11.0889 0.911125 11.5 1.41667 11.5H4.16667V11.0417H1.41667C1.3525 11.0417 1.292 11.0279 1.23654 11.0041L5.96379 6.27683L10.7043 11.0174C10.6649 11.0284 10.626 11.0417 10.5833 11.0417H7.83333V11.5H10.5833C11.0889 11.5 11.5 11.0889 11.5 10.5833V7.83333H11.0417V10.5833C11.0417 10.6195 11.0288 10.6516 11.021 10.6855L6.28783 5.95233L11.0041 1.23654C11.0279 1.292 11.0417 1.35296 11.0417 1.41667V4.16667H11.5Z" fill="#09090B"/>
</g>
</g>
</svg>
