<svg width="16" height="16" viewBox="0 0 16 16" fill="none" xmlns="http://www.w3.org/2000/svg">
<g opacity="0.5">
<mask id="mask0_56_289" style="mask-type:luminance" maskUnits="userSpaceOnUse" x="0" y="0" width="16" height="16">
<path d="M16 0H0V16H16V0Z" fill="white"/>
</mask>
<g mask="url(#mask0_56_289)">
<mask id="mask1_56_289" style="mask-type:luminance" maskUnits="userSpaceOnUse" x="0" y="0" width="16" height="16">
<path d="M15.3332 0.666626H0.666504V15.3333H15.3332V0.666626Z" fill="white"/>
</mask>
<g mask="url(#mask1_56_289)">
<path d="M15.3332 5.55552V1.88885C15.3332 1.21479 14.785 0.666626 14.1109 0.666626H10.4443V1.27774H14.1109C14.1312 1.27774 14.1476 1.28752 14.1672 1.28935L7.95156 7.50435L1.75245 1.30524C1.79768 1.29485 1.84045 1.27774 1.88873 1.27774H5.5554V0.666626H1.88873C1.21467 0.666626 0.666504 1.21479 0.666504 1.88885V5.55552H1.27761V1.88885C1.27761 1.8314 1.29534 1.78007 1.31061 1.72752L7.5195 7.9364L1.28923 14.1673C1.28739 14.1477 1.27761 14.1313 1.27761 14.111V10.4444H0.666504V14.111C0.666504 14.7852 1.21467 15.3333 1.88873 15.3333H5.5554V14.7222H1.88873C1.80317 14.7222 1.7225 14.7038 1.64856 14.6721L7.95156 8.36907L14.2722 14.6898C14.2197 14.7045 14.1678 14.7222 14.1109 14.7222H10.4443V15.3333H14.1109C14.785 15.3333 15.3332 14.7852 15.3332 14.111V10.4444H14.7221V14.111C14.7221 14.1593 14.7049 14.2021 14.6945 14.2473L8.38361 7.9364L14.672 1.64868C14.7037 1.72263 14.7221 1.80391 14.7221 1.88885V5.55552H15.3332Z" fill="#09090B"/>
</g>
</g>
</g>
</svg>
