<svg width="16" height="16" viewBox="0 0 16 16" fill="none" xmlns="http://www.w3.org/2000/svg">
<g opacity="0.5">
<path d="M13.8054 1.88861H11.6665V0.666382H11.0554V1.88861H4.94428V0.666382H4.33317V1.88861H2.19428C1.35156 1.88861 0.666504 2.57427 0.666504 3.41638V15.333H15.3331V3.41638C15.3331 2.57427 14.6481 1.88861 13.8054 1.88861ZM2.19428 2.49971H13.8054C14.3108 2.49971 14.7221 2.91099 14.7221 3.41638V5.55527H1.27762V3.41638C1.27762 2.91099 1.68889 2.49971 2.19428 2.49971ZM1.27762 14.722V6.16638H14.7221V14.722H1.27762ZM3.72206 8.61086H12.2776V9.22198H3.72206V8.61086ZM3.72206 11.6664H7.99983V12.2775H3.72206V11.6664Z" fill="#09090B"/>
</g>
</svg>
