<svg width="24" height="24" viewBox="0 0 24 24" fill="none" xmlns="http://www.w3.org/2000/svg">
<mask id="mask0_43_754" style="mask-type:luminance" maskUnits="userSpaceOnUse" x="0" y="0" width="24" height="24">
<path d="M24 0H0V24H24V0Z" fill="white"/>
</mask>
<g mask="url(#mask0_43_754)">
<path d="M23.2938 5.783L20.1398 1.522C19.4588 0.569 18.3518 0 17.1808 0H9.92581C9.92581 0 9.91781 0 9.91381 0H6.81982C5.64781 0 4.54181 0.569 3.86681 1.514L0.666811 5.784C-0.271188 7.11 -0.211188 8.917 0.793812 10.153L9.96982 23.019C10.4638 23.642 11.2038 23.999 11.9988 23.999C12.7938 23.999 13.5348 23.641 14.0438 22.999L23.1828 10.228C24.2248 8.945 24.2718 7.118 23.2938 5.783ZM19.3318 2.111L22.4888 6.377C22.6318 6.572 22.7438 6.782 22.8268 7H16.8568L14.7918 1H17.1808C18.0308 1 18.8328 1.413 19.3318 2.111ZM8.20081 7L10.2658 1H13.7348L15.7998 7H8.20081ZM15.8398 8L11.9998 21.653L8.15981 8H15.8398ZM4.67281 2.104C5.16682 1.413 5.96881 1 6.81881 1H9.20782L7.14281 7H1.15081C1.22881 6.78 1.33681 6.569 1.47481 6.373L4.67281 2.104ZM10.7688 22.418L1.58881 9.548C1.22281 9.098 1.02681 8.552 1.00181 8H7.11982L11.2868 22.816C11.0858 22.725 10.9058 22.592 10.7678 22.419L10.7688 22.418ZM13.2468 22.397C13.1018 22.579 12.9178 22.716 12.7138 22.81L16.8798 7.998H22.9958C22.9798 8.571 22.7778 9.142 22.3898 9.62L13.2478 22.396L13.2468 22.397Z" fill="white"/>
</g>
</svg>
