<svg width="24" height="24" viewBox="0 0 24 24" fill="none" xmlns="http://www.w3.org/2000/svg">
<path d="M12.5 24C12.447 24.019 12.635 24 12.5 24V24ZM12.5 24C5 24 0 18.617 0 12C0 5.383 5.383 0 12 0C18.617 0 24 5.383 24 12C24 19 18.5 24 12.5 24ZM16.43 4H15.5C14.673 4 14 4.673 14 5.5V6.5C14 7.327 13.327 8 12.5 8C11.673 8 11 8.673 11 9.5V10.5C11 11.327 11.673 12 12.5 12H15.5C16.879 12 18 13.121 18 14.5V15C18 15.106 18.055 17.576 20.524 18.941C22.07 17.046 23 14.631 23 12C23 8.309 21.167 5.045 18.37 3.049C17.898 3.64 17.195 4 16.43 4ZM12 17.5C12 16.673 11.327 16 10.5 16H7.242C6.321 16 5.419 15.626 4.767 14.975L1.038 11.246C1.021 11.496 1 11.746 1 12.001C1 18.066 5.935 23.001 12 23.001V17.5ZM19.84 19.702C17.04 18.026 17 15.128 17 15V14.5C17 13.673 16.327 13 15.5 13H12.5C11.121 13 10 11.878 10 10.5V9.5C10 8.122 11.121 7 12.5 7C12.775 7 13 6.776 13 6.5V5.5C13 4.122 14.121 3 15.5 3H16.43C16.855 3 17.247 2.814 17.529 2.505C15.902 1.554 14.017 1 12.001 1C6.623 1 2.143 4.88 1.193 9.986L5.474 14.267C5.94 14.733 6.583 14.999 7.242 14.999H10.5C11.879 14.999 13 16.12 13 17.499V22.948C15.668 22.706 18.063 21.511 19.84 19.702Z" fill="white"/>
</svg>
