<svg width="112" height="56" viewBox="0 0 112 56" fill="none" xmlns="http://www.w3.org/2000/svg">
<path d="M0.910473 37.5943C2.14467 37.5943 2.76177 36.8255 2.76177 35.2878V18.6565C2.76177 17.1188 2.14467 16.3499 0.910473 16.3499H13.8695L15.1139 18.2012C14.2236 17.1693 12.9894 16.6534 11.4113 16.6534H5.1897V26.1527H8.80124C10.3389 26.1527 11.1078 25.5356 11.1078 24.3014V28.3075C11.1078 27.0733 10.3389 26.4562 8.80124 26.4562H5.1897V37.2908H12.0789C12.8478 37.2908 13.5762 37.1188 14.2641 36.7749C14.9722 36.4107 15.5489 35.9656 15.994 35.4395L14.5372 37.5943H0.910473ZM20.727 35.2878C20.727 36.8255 21.3441 37.5943 22.5783 37.5943H16.4478C17.682 37.5943 18.2991 36.8255 18.2991 35.2878V18.6565C18.2991 17.1188 17.682 16.3499 16.4478 16.3499H23.3977C25.9875 16.3499 28.1221 16.8962 29.8014 17.9888C31.501 19.0813 32.3507 20.7607 32.3507 23.0267C32.3507 25.2928 31.501 26.9721 29.8014 28.0647C28.1221 29.1572 25.9875 29.7035 23.3977 29.7035H20.727V35.2878ZM23.0032 29.4C25.1074 29.4 26.7665 28.8538 27.9805 27.7612C29.1944 26.6484 29.8014 25.0702 29.8014 23.0267C29.8014 20.9832 29.1944 19.4152 27.9805 18.3226C26.7665 17.2098 25.1074 16.6534 23.0032 16.6534H20.727V29.4H23.0032ZM43.0099 37.5943C43.8597 37.5943 44.2846 37.2402 44.2846 36.5321C44.2846 36.2286 44.2138 35.8947 44.0721 35.5306L41.189 28.0647C39.0443 28.1051 37.3447 28.5503 36.0903 29.4C34.8359 30.2498 33.9962 31.2817 33.5713 32.4956L32.4484 35.6823C32.3473 35.9251 32.2967 36.1982 32.2967 36.5017C32.2967 36.8659 32.408 37.1391 32.6305 37.3212C32.8733 37.5033 33.2071 37.5943 33.632 37.5943H29.626C30.1925 37.5943 30.6983 37.4426 31.1434 37.1391C31.5885 36.8153 31.9224 36.3298 32.1449 35.6823L38.9128 16.3499H39.2163L46.6215 35.8644C46.844 36.4511 47.1779 36.8862 47.623 37.1694C48.0883 37.4527 48.5941 37.5943 49.1404 37.5943H43.0099ZM34.148 30.8568C34.8359 29.9261 35.7666 29.1876 36.9401 28.6413C38.1136 28.095 39.4894 27.8017 41.0676 27.7612L38.0023 19.8097L34.148 30.8568ZM56.6535 38.0799C55.7633 38.0799 54.873 37.9686 53.9828 37.746C53.1128 37.5437 52.3237 37.2605 51.6155 36.8963C51.2514 36.6939 50.8973 36.5928 50.5533 36.5928C50.2094 36.5928 49.9463 36.7142 49.7642 36.957L50.4926 32.4956C50.5331 33.4668 50.8366 34.3571 51.4031 35.1664C51.9898 35.9757 52.7486 36.613 53.6793 37.0784C54.61 37.5437 55.6014 37.7764 56.6535 37.7764C57.8068 37.7764 58.788 37.5741 59.5974 37.1694C60.4067 36.7445 61.0035 36.2185 61.388 35.5913C61.7926 34.9438 61.9949 34.2964 61.9949 33.6489C61.9949 33.0015 61.7724 32.3844 61.3273 31.7976C60.9024 31.1906 60.3662 30.6342 59.7188 30.1284C59.0713 29.6226 58.171 28.965 57.0177 28.1557C55.6621 27.225 54.5594 26.4157 53.7096 25.7278C52.8801 25.0399 52.1719 24.2508 51.5852 23.3606C50.9984 22.4703 50.7051 21.4992 50.7051 20.4471C50.7051 19.0712 51.2514 17.9685 52.3439 17.139C53.4567 16.2892 54.9944 15.8643 56.957 15.8643C58.0091 15.8643 58.8184 15.9554 59.3849 16.1375C59.9717 16.2993 60.7607 16.6028 61.7521 17.0479C62.1973 17.2705 62.5817 17.3818 62.9054 17.3818C63.2291 17.3818 63.4517 17.2907 63.5731 17.1086L62.8751 21.3272C62.9155 20.3155 62.6727 19.4253 62.1467 18.6565C61.6409 17.8674 60.9226 17.2604 59.9919 16.8355C59.0814 16.3904 58.0698 16.1678 56.957 16.1678C55.6621 16.1678 54.6201 16.4511 53.831 17.0176C53.042 17.5639 52.6474 18.3732 52.6474 19.4455C52.6474 20.2751 52.9003 21.054 53.4061 21.7824C53.9322 22.5108 54.5695 23.1785 55.3181 23.7855C56.0667 24.3722 57.0683 25.0905 58.3227 25.9402C59.5771 26.79 60.5685 27.5083 61.2969 28.095C62.0455 28.6818 62.6727 29.3292 63.1786 30.0374C63.6844 30.7455 63.9373 31.5042 63.9373 32.3136C63.9373 33.5073 63.6237 34.5392 62.9965 35.4092C62.3692 36.2792 61.4992 36.9469 60.3864 37.4122C59.2736 37.8573 58.0293 38.0799 56.6535 38.0799ZM79.6299 27.9129C81.7341 27.9129 83.3932 27.4273 84.6072 26.4562C85.8211 25.485 86.4281 24.0889 86.4281 22.268C86.4281 20.4471 85.8211 19.051 84.6072 18.0798C83.3932 17.1086 81.7442 16.6231 79.6603 16.6231L79.6299 16.6534H69.8878V27.9129H73.4994C75.0371 27.9129 75.8059 27.2958 75.8059 26.0616V30.0677C75.8059 28.8335 75.0371 28.2164 73.4994 28.2164H69.8878V37.2908H76.7771C77.5459 37.2908 78.2743 37.1188 78.9622 36.7749C79.6704 36.4107 80.247 35.9656 80.6921 35.4395L79.2354 37.5943H65.6086C66.8428 37.5943 67.4599 36.8255 67.4599 35.2878V18.6565C67.4599 17.1188 66.8428 16.3499 65.6086 16.3499H80.0244C82.6142 16.3499 84.7488 16.8355 86.4281 17.8067C88.1277 18.7576 88.9774 20.2447 88.9774 22.268C88.9774 23.6641 88.5525 24.8072 87.7028 25.6974C86.8732 26.5877 85.7301 27.2453 84.2733 27.6701L88.1277 35.6823C88.4311 36.3095 88.8156 36.785 89.2809 37.1087C89.7665 37.4324 90.2015 37.5943 90.5859 37.5943H84.7589C85.5075 37.5943 85.8818 37.2807 85.8818 36.6535C85.8818 36.2893 85.7807 35.8947 85.5783 35.4699L82.0578 28.095C81.4711 28.176 80.7933 28.2164 80.0244 28.2164H79.6299V27.9129ZM100.442 38.0799C98.6613 38.0799 97.0731 37.5943 95.677 36.6231C94.2809 35.6317 93.1884 34.2964 92.3993 32.617C91.6102 30.9377 91.2157 29.0864 91.2157 27.0632C91.2157 25.0399 91.6102 23.1785 92.3993 21.4789C93.1884 19.7591 94.2809 18.3934 95.677 17.3818C97.0933 16.3702 98.6917 15.8643 100.472 15.8643C102.232 15.8643 103.841 16.3702 105.298 17.3818C106.754 18.3934 107.898 19.7591 108.727 21.4789C109.577 23.1987 110.002 25.0601 110.002 27.0632C110.002 29.0662 109.577 30.9175 108.727 32.617C107.898 34.2964 106.754 35.6317 105.298 36.6231C103.841 37.5943 102.222 38.0799 100.442 38.0799ZM93.765 27.0632C93.765 28.7627 94.0078 30.442 94.4934 32.1011C94.9992 33.74 95.7579 35.0956 96.7696 36.1679C97.7812 37.2402 99.0053 37.7764 100.442 37.7764C101.878 37.7764 103.123 37.2402 104.175 36.1679C105.247 35.0753 106.056 33.7096 106.603 32.0708C107.169 30.4117 107.452 28.7425 107.452 27.0632C107.452 25.5457 107.169 23.9372 106.603 22.2376C106.056 20.5179 105.247 19.0813 104.175 17.9281C103.123 16.7546 101.888 16.1678 100.472 16.1678C99.0356 16.1678 97.8116 16.7546 96.7999 17.9281C95.7883 19.0813 95.0296 20.5077 94.5237 22.2073C94.0179 23.8866 93.765 25.5052 93.765 27.0632Z" fill="white"/>
<path d="M7.93906 46.6123V47.2401C7.62876 46.8793 7.26072 46.6015 6.83496 46.4066C6.41641 46.2046 5.97261 46.1035 5.50355 46.1035C4.58707 46.1035 3.81853 46.4247 3.19793 47.0669C2.57732 47.7092 2.26702 48.4921 2.26702 49.4158C2.26702 49.9282 2.36444 50.3973 2.55928 50.823C2.76134 51.2488 3.02113 51.5952 3.33865 51.8622C3.66338 52.122 4.01337 52.324 4.38862 52.4683C4.76387 52.6054 5.13912 52.674 5.51437 52.674C5.91849 52.674 6.33703 52.5874 6.77001 52.4142C7.20299 52.2338 7.59267 51.956 7.93906 51.5807V52.2086C7.26072 52.8075 6.45971 53.107 5.53602 53.107C4.468 53.107 3.57318 52.7426 2.85154 52.0137C2.12991 51.2849 1.76909 50.4117 1.76909 49.3942C1.76909 48.355 2.13352 47.4746 2.86237 46.753C3.59122 46.0314 4.47522 45.6706 5.51437 45.6706C6.46693 45.6706 7.27516 45.9845 7.93906 46.6123ZM13.9763 46.753C14.6979 46.0314 15.5855 45.6706 16.6391 45.6706C17.6927 45.6706 18.5803 46.0314 19.3019 46.753C20.0235 47.4746 20.3844 48.355 20.3844 49.3942C20.3844 50.4333 20.0235 51.3137 19.3019 52.0354C18.5803 52.7498 17.6927 53.107 16.6391 53.107C15.5855 53.107 14.6979 52.7498 13.9763 52.0354C13.2546 51.3137 12.8938 50.4333 12.8938 49.3942C12.8938 48.355 13.2546 47.4746 13.9763 46.753ZM14.3226 51.7323C14.9432 52.3601 15.7154 52.674 16.6391 52.674C17.5628 52.674 18.3349 52.3601 18.9555 51.7323C19.5761 51.0972 19.8864 50.3179 19.8864 49.3942C19.8864 48.4633 19.5761 47.6839 18.9555 47.0561C18.3349 46.4211 17.5628 46.1035 16.6391 46.1035C15.7154 46.1035 14.9432 46.4211 14.3226 47.0561C13.702 47.6839 13.3917 48.4633 13.3917 49.3942C13.3917 50.3179 13.702 51.0972 14.3226 51.7323ZM26.2058 52.9879H25.7295V45.6922L31.7913 52.0354V45.768H32.2675V53.1719L26.2058 46.8288V52.9879ZM41.4054 46.201H39.5327V52.9879H39.0565V46.201H37.1838V45.768H41.4054V46.201ZM49.8914 52.9879H49.3502L47.0121 49.5782H46.7956V52.9879H46.3194V45.768H47.3585C48.0152 45.768 48.5239 45.8907 48.8848 46.136C49.3827 46.4824 49.6316 46.9984 49.6316 47.6839C49.6316 48.0808 49.5342 48.438 49.3394 48.7555C49.1445 49.0658 48.8379 49.2932 48.4193 49.4375C48.1451 49.5313 47.8492 49.5782 47.5317 49.5782L49.8914 52.9879ZM46.7956 46.201V49.1452H47.4884C48.0008 49.1452 48.4013 49.0153 48.6899 48.7555C48.9858 48.4957 49.1337 48.1349 49.1337 47.6731C49.1337 47.0669 48.9208 46.6484 48.4951 46.4174C48.2425 46.2731 47.8745 46.201 47.391 46.201H46.7956ZM59.8692 52.9879L58.9058 50.6173H55.8316L54.8683 52.9879H54.3487L57.3904 45.5515L60.3888 52.9879H59.8692ZM56.0048 50.1844H58.7326L57.3795 46.7638L56.0048 50.1844ZM71.0827 46.6123V47.2401C70.7724 46.8793 70.4043 46.6015 69.9786 46.4066C69.56 46.2046 69.1162 46.1035 68.6472 46.1035C67.7307 46.1035 66.9622 46.4247 66.3416 47.0669C65.7209 47.7092 65.4106 48.4921 65.4106 49.4158C65.4106 49.9282 65.5081 50.3973 65.7029 50.823C65.905 51.2488 66.1648 51.5952 66.4823 51.8622C66.807 52.122 67.157 52.324 67.5322 52.4683C67.9075 52.6054 68.2827 52.674 68.658 52.674C69.0621 52.674 69.4807 52.5874 69.9136 52.4142C70.3466 52.2338 70.7363 51.956 71.0827 51.5807V52.2086C70.4043 52.8075 69.6033 53.107 68.6796 53.107C67.6116 53.107 66.7168 52.7426 65.9952 52.0137C65.2735 51.2849 64.9127 50.4117 64.9127 49.3942C64.9127 48.355 65.2771 47.4746 66.006 46.753C66.7348 46.0314 67.6188 45.6706 68.658 45.6706C69.6105 45.6706 70.4188 45.9845 71.0827 46.6123ZM79.826 46.201H77.9534V52.9879H77.4771V46.201H75.6044V45.768H79.826V46.201ZM84.74 45.768H85.2163V52.9879H84.74V45.768ZM91.4256 52.9879H90.9493V45.6922L97.011 52.0354V45.768H97.4873V53.1719L91.4256 46.8288V52.9879ZM106.993 49.9571V49.5241H110.024C110.024 50.4766 109.779 51.2668 109.288 51.8946C108.653 52.7029 107.747 53.107 106.571 53.107C105.503 53.107 104.612 52.757 103.897 52.057C103.19 51.357 102.837 50.4694 102.837 49.3942C102.837 48.3334 103.197 47.4494 103.919 46.7422C104.648 46.0278 105.543 45.6706 106.603 45.6706C107.433 45.6706 108.187 45.9303 108.866 46.4499C109.198 46.7097 109.486 47.0128 109.732 47.3592L109.353 47.6623C109.18 47.3664 108.949 47.0994 108.66 46.8612C108.054 46.3561 107.365 46.1035 106.593 46.1035C105.669 46.1035 104.893 46.4247 104.265 47.0669C103.645 47.7092 103.334 48.4921 103.334 49.4158C103.334 50.3251 103.641 51.0972 104.255 51.7323C104.868 52.3601 105.636 52.674 106.56 52.674C107.13 52.674 107.635 52.5549 108.076 52.3168C108.523 52.0714 108.855 51.7828 109.071 51.4508C109.36 51.0034 109.519 50.5055 109.548 49.9571H106.993Z" fill="white"/>
<mask id="mask0_49_66" style="mask-type:luminance" maskUnits="userSpaceOnUse" x="82" y="0" width="22" height="21">
<path d="M83.781 0L103.217 1.17188L102.081 20.0191L82.6445 18.8472L83.781 0Z" fill="white"/>
</mask>
<g mask="url(#mask0_49_66)">
<path d="M92.4987 15.738C91.9146 14.9596 91.3759 14.3151 90.9221 13.6153C89.4907 11.429 89.6352 9.22735 90.9192 7.02022C92.0332 5.10634 93.4811 3.45569 94.9191 1.79755C95.2283 1.46528 95.5062 1.10517 95.7499 0.721733C94.6766 1.55532 93.5885 2.38112 92.5182 3.2235C90.9433 4.46648 89.3372 5.68518 88.0515 7.24733C87.563 7.82186 87.1735 8.47575 86.9004 9.18138C86.5198 10.2309 86.8703 11.2072 87.5659 12.0526C88.654 13.3751 90.0748 14.2625 91.4974 15.1501C91.7948 15.3352 92.0969 15.5034 92.4987 15.738Z" fill="white"/>
<path d="M91.8903 14.0869C92.5931 15.125 93.1117 15.8521 94.0759 16.317C94.7633 16.6481 95.4288 17.0279 96.118 17.3609C96.2407 17.42 96.4237 17.3586 96.6302 17.3504C96.6508 17.5217 96.7671 17.6793 96.8768 17.7343C97.1813 17.8768 97.2297 17.9178 97.4197 18.0014C98.9585 18.677 100.499 19.3492 102.042 20.018L102.087 19.9191C101.482 19.6136 100.861 19.3365 100.276 18.9944C98.6723 18.0597 97.078 17.1089 95.4926 16.1421C95.2377 15.9871 95.0477 15.8618 94.8099 16.1561C94.7615 16.1938 94.7049 16.2191 94.6453 16.2299C94.5851 16.2407 94.5237 16.2367 94.4653 16.2181C94.2511 16.1233 94.0434 16.014 93.844 15.891L93.8517 15.7639C93.995 15.7621 94.1396 15.7657 94.2836 15.7588C94.398 15.7519 94.5137 15.7313 94.627 15.7175C94.5945 15.6068 94.5426 15.5028 94.4747 15.41C93.8581 14.8418 93.2238 14.3001 92.6126 13.7236C92.3966 13.5226 92.1376 13.2881 91.9305 13.0773C91.7375 12.9047 91.6065 12.7992 91.4224 12.5673L91.2077 12.3441C91.161 13.1171 91.4803 13.4812 91.8903 14.0869C91.7245 13.6684 92.4721 13.9651 92.6432 14.291C92.6834 14.3658 92.1293 14.0221 92.1234 14.1234C92.0255 14.1169 92.4314 14.5577 92.3435 14.5143C92.3405 14.5119 92.3382 14.5095 92.3352 14.5071C92.1812 14.3718 92.029 14.2378 91.8903 14.0869Z" fill="white"/>
<path d="M91.891 14.0869C91.7252 13.6684 92.4727 13.9651 92.6438 14.2909C92.6839 14.3657 92.1299 14.0221 92.124 14.1234C92.0261 14.1169 92.432 14.5576 92.3441 14.5141L92.3358 14.507C92.1818 14.3717 92.0296 14.2378 91.891 14.0869Z" fill="white"/>
<path d="M95.4923 16.1422C95.2374 15.9872 95.0474 15.8619 94.8097 16.1562C94.7613 16.1939 94.7046 16.2192 94.645 16.23C94.5848 16.2408 94.5235 16.2367 94.4651 16.2182C94.2509 16.1233 94.0432 16.0141 93.8438 15.891L93.8514 15.7639C93.9948 15.7622 94.1394 15.7658 94.2833 15.7589C94.3978 15.752 94.5134 15.7314 94.6267 15.7176C94.5943 15.6069 94.5424 15.5029 94.4745 15.4101L95.4923 16.1422Z" fill="white"/>
<path d="M96.1182 17.3607C96.2409 17.4198 96.4237 17.3584 96.6302 17.3502C96.6509 17.5215 96.7671 17.679 96.8768 17.734L96.1182 17.3607Z" fill="white"/>
<path d="M87.3488 12.2134C86.4478 11.1332 86.4324 9.83395 86.4165 8.53644C86.4248 8.27877 86.3746 8.02263 86.2708 7.78732C86.1669 7.55201 86.0117 7.34366 85.8164 7.17786C85.6742 7.03513 85.4931 6.93871 85.296 6.90101C85.0989 6.86336 84.8954 6.88608 84.7113 6.96639C84.2469 7.17804 83.8138 7.45713 83.3164 7.73575C83.4686 7.81458 83.6291 7.87571 83.7943 7.91801C84.3024 7.98138 84.5372 8.32827 84.7313 8.74868C85.0122 9.35525 85.2783 9.97474 85.6099 10.5516C86.0235 11.26 86.626 11.836 87.3488 12.2134Z" fill="white"/>
</g>
</svg>
