<svg width="112" height="56" viewBox="0 0 112 56" fill="none" xmlns="http://www.w3.org/2000/svg">
<path d="M0.910473 37.5942C2.14467 37.5942 2.76177 36.8254 2.76177 35.2877V18.6564C2.76177 17.1187 2.14467 16.3499 0.910473 16.3499H13.8695L15.1139 18.2012C14.2236 17.1693 12.9894 16.6533 11.4113 16.6533H5.1897V26.1526H8.80124C10.3389 26.1526 11.1078 25.5355 11.1078 24.3013V28.3074C11.1078 27.0732 10.3389 26.4561 8.80124 26.4561H5.1897V37.2907H12.0789C12.8478 37.2907 13.5762 37.1188 14.2641 36.7748C14.9722 36.4106 15.5489 35.9655 15.994 35.4395L14.5372 37.5942H0.910473ZM20.727 35.2877C20.727 36.8254 21.3441 37.5942 22.5783 37.5942H16.4478C17.682 37.5942 18.2991 36.8254 18.2991 35.2877V18.6564C18.2991 17.1187 17.682 16.3499 16.4478 16.3499H23.3977C25.9875 16.3499 28.1221 16.8961 29.8014 17.9887C31.501 19.0813 32.3507 20.7606 32.3507 23.0267C32.3507 25.2927 31.501 26.972 29.8014 28.0646C28.1221 29.1572 25.9875 29.7035 23.3977 29.7035H20.727V35.2877ZM23.0032 29.4C25.1074 29.4 26.7665 28.8537 27.9805 27.7611C29.1944 26.6483 29.8014 25.0702 29.8014 23.0267C29.8014 20.9832 29.1944 19.4151 27.9805 18.3226C26.7665 17.2098 25.1074 16.6533 23.0032 16.6533H20.727V29.4H23.0032ZM43.0099 37.5942C43.8597 37.5942 44.2846 37.2402 44.2846 36.532C44.2846 36.2285 44.2138 35.8947 44.0721 35.5305L41.189 28.0646C39.0443 28.1051 37.3447 28.5502 36.0903 29.4C34.8359 30.2498 33.9962 31.2816 33.5713 32.4956L32.4484 35.6822C32.3473 35.925 32.2967 36.1982 32.2967 36.5017C32.2967 36.8659 32.408 37.139 32.6305 37.3211C32.8733 37.5032 33.2071 37.5942 33.632 37.5942H29.626C30.1925 37.5942 30.6983 37.4425 31.1434 37.139C31.5885 36.8153 31.9224 36.3297 32.1449 35.6822L38.9128 16.3499H39.2163L46.6215 35.8643C46.844 36.4511 47.1779 36.8861 47.623 37.1694C48.0883 37.4526 48.5941 37.5942 49.1404 37.5942H43.0099ZM34.148 30.8567C34.8359 29.926 35.7666 29.1875 36.9401 28.6412C38.1136 28.095 39.4894 27.8016 41.0676 27.7611L38.0023 19.8097L34.148 30.8567ZM56.6535 38.0798C55.7633 38.0798 54.873 37.9685 53.9828 37.746C53.1128 37.5437 52.3237 37.2604 51.6155 36.8962C51.2514 36.6939 50.8973 36.5927 50.5533 36.5927C50.2094 36.5927 49.9463 36.7141 49.7642 36.9569L50.4926 32.4956C50.5331 33.4668 50.8366 34.357 51.4031 35.1663C51.9898 35.9756 52.7486 36.613 53.6793 37.0783C54.61 37.5437 55.6014 37.7763 56.6535 37.7763C57.8068 37.7763 58.788 37.574 59.5974 37.1694C60.4067 36.7445 61.0035 36.2184 61.388 35.5912C61.7926 34.9437 61.9949 34.2963 61.9949 33.6489C61.9949 33.0014 61.7724 32.3843 61.3273 31.7976C60.9024 31.1906 60.3662 30.6342 59.7188 30.1284C59.0713 29.6225 58.171 28.965 57.0177 28.1557C55.6621 27.225 54.5594 26.4156 53.7096 25.7277C52.8801 25.0398 52.1719 24.2507 51.5852 23.3605C50.9984 22.4703 50.7051 21.4991 50.7051 20.447C50.7051 19.0712 51.2514 17.9685 52.3439 17.1389C53.4567 16.2892 54.9944 15.8643 56.957 15.8643C58.0091 15.8643 58.8184 15.9553 59.3849 16.1374C59.9717 16.2993 60.7607 16.6028 61.7521 17.0479C62.1973 17.2704 62.5817 17.3817 62.9054 17.3817C63.2291 17.3817 63.4517 17.2907 63.5731 17.1086L62.8751 21.3271C62.9155 20.3155 62.6727 19.4252 62.1467 18.6564C61.6409 17.8673 60.9226 17.2603 59.9919 16.8354C59.0814 16.3903 58.0698 16.1678 56.957 16.1678C55.6621 16.1678 54.6201 16.451 53.831 17.0175C53.042 17.5638 52.6474 18.3731 52.6474 19.4455C52.6474 20.275 52.9003 21.054 53.4061 21.7824C53.9322 22.5107 54.5695 23.1784 55.3181 23.7854C56.0667 24.3721 57.0683 25.0904 58.3227 25.9402C59.5771 26.79 60.5685 27.5082 61.2969 28.095C62.0455 28.6817 62.6727 29.3292 63.1786 30.0373C63.6844 30.7455 63.9373 31.5042 63.9373 32.3135C63.9373 33.5072 63.6237 34.5391 62.9965 35.4091C62.3692 36.2791 61.4992 36.9468 60.3864 37.4121C59.2736 37.8573 58.0293 38.0798 56.6535 38.0798ZM79.6299 27.9129C81.7341 27.9129 83.3932 27.4273 84.6072 26.4561C85.8211 25.4849 86.4281 24.0889 86.4281 22.2679C86.4281 20.447 85.8211 19.0509 84.6072 18.0798C83.3932 17.1086 81.7442 16.623 79.6603 16.623L79.6299 16.6533H69.8878V27.9129H73.4994C75.0371 27.9129 75.8059 27.2958 75.8059 26.0616V30.0677C75.8059 28.8335 75.0371 28.2164 73.4994 28.2164H69.8878V37.2907H76.7771C77.5459 37.2907 78.2743 37.1188 78.9622 36.7748C79.6704 36.4106 80.247 35.9655 80.6921 35.4395L79.2354 37.5942H65.6086C66.8428 37.5942 67.4599 36.8254 67.4599 35.2877V18.6564C67.4599 17.1187 66.8428 16.3499 65.6086 16.3499H80.0244C82.6142 16.3499 84.7488 16.8354 86.4281 17.8066C88.1277 18.7576 88.9774 20.2447 88.9774 22.2679C88.9774 23.664 88.5525 24.8071 87.7028 25.6974C86.8732 26.5876 85.7301 27.2452 84.2733 27.6701L88.1277 35.6822C88.4311 36.3095 88.8156 36.7849 89.2809 37.1087C89.7665 37.4324 90.2015 37.5942 90.5859 37.5942H84.7589C85.5075 37.5942 85.8818 37.2806 85.8818 36.6534C85.8818 36.2892 85.7807 35.8947 85.5783 35.4698L82.0578 28.095C81.4711 28.1759 80.7933 28.2164 80.0244 28.2164H79.6299V27.9129ZM100.442 38.0798C98.6613 38.0798 97.0731 37.5942 95.677 36.6231C94.2809 35.6317 93.1884 34.2963 92.3993 32.617C91.6102 30.9377 91.2157 29.0864 91.2157 27.0631C91.2157 25.0398 91.6102 23.1784 92.3993 21.4789C93.1884 19.7591 94.2809 18.3934 95.677 17.3817C97.0933 16.3701 98.6917 15.8643 100.472 15.8643C102.232 15.8643 103.841 16.3701 105.298 17.3817C106.754 18.3934 107.898 19.7591 108.727 21.4789C109.577 23.1986 110.002 25.0601 110.002 27.0631C110.002 29.0661 109.577 30.9174 108.727 32.617C107.898 34.2963 106.754 35.6317 105.298 36.6231C103.841 37.5942 102.222 38.0798 100.442 38.0798ZM93.765 27.0631C93.765 28.7626 94.0078 30.442 94.4934 32.101C94.9992 33.7399 95.7579 35.0955 96.7696 36.1678C97.7812 37.2402 99.0053 37.7763 100.442 37.7763C101.878 37.7763 103.123 37.2402 104.175 36.1678C105.247 35.0753 106.056 33.7096 106.603 32.0707C107.169 30.4116 107.452 28.7424 107.452 27.0631C107.452 25.5456 107.169 23.9371 106.603 22.2376C106.056 20.5178 105.247 19.0813 104.175 17.928C103.123 16.7545 101.888 16.1678 100.472 16.1678C99.0356 16.1678 97.8116 16.7545 96.7999 17.928C95.7883 19.0813 95.0296 20.5077 94.5237 22.2072C94.0179 23.8866 93.765 25.5052 93.765 27.0631Z" fill="black"/>
<path d="M7.93906 46.6122V47.24C7.62876 46.8792 7.26072 46.6013 6.83496 46.4065C6.41641 46.2044 5.97261 46.1034 5.50355 46.1034C4.58707 46.1034 3.81853 46.4245 3.19793 47.0668C2.57732 47.709 2.26702 48.492 2.26702 49.4157C2.26702 49.9281 2.36444 50.3971 2.55928 50.8229C2.76134 51.2487 3.02113 51.595 3.33865 51.862C3.66338 52.1218 4.01337 52.3239 4.38862 52.4682C4.76387 52.6053 5.13912 52.6739 5.51437 52.6739C5.91849 52.6739 6.33703 52.5873 6.77001 52.4141C7.20299 52.2337 7.59267 51.9559 7.93906 51.5806V52.2084C7.26072 52.8074 6.45971 53.1069 5.53602 53.1069C4.468 53.1069 3.57318 52.7424 2.85154 52.0136C2.12991 51.2847 1.76909 50.4116 1.76909 49.3941C1.76909 48.3549 2.13352 47.4745 2.86237 46.7529C3.59122 46.0312 4.47522 45.6704 5.51437 45.6704C6.46693 45.6704 7.27516 45.9843 7.93906 46.6122ZM13.9763 46.7529C14.6979 46.0312 15.5855 45.6704 16.6391 45.6704C17.6927 45.6704 18.5803 46.0312 19.3019 46.7529C20.0235 47.4745 20.3844 48.3549 20.3844 49.3941C20.3844 50.4332 20.0235 51.3136 19.3019 52.0352C18.5803 52.7497 17.6927 53.1069 16.6391 53.1069C15.5855 53.1069 14.6979 52.7497 13.9763 52.0352C13.2546 51.3136 12.8938 50.4332 12.8938 49.3941C12.8938 48.3549 13.2546 47.4745 13.9763 46.7529ZM14.3226 51.7322C14.9432 52.36 15.7154 52.6739 16.6391 52.6739C17.5628 52.6739 18.3349 52.36 18.9555 51.7322C19.5761 51.0971 19.8864 50.3177 19.8864 49.3941C19.8864 48.4632 19.5761 47.6838 18.9555 47.056C18.3349 46.4209 17.5628 46.1034 16.6391 46.1034C15.7154 46.1034 14.9432 46.4209 14.3226 47.056C13.702 47.6838 13.3917 48.4632 13.3917 49.3941C13.3917 50.3177 13.702 51.0971 14.3226 51.7322ZM26.2058 52.9878H25.7295V45.6921L31.7913 52.0352V45.7679H32.2675V53.1718L26.2058 46.8287V52.9878ZM41.4054 46.2008H39.5327V52.9878H39.0565V46.2008H37.1838V45.7679H41.4054V46.2008ZM49.8914 52.9878H49.3502L47.0121 49.5781H46.7956V52.9878H46.3194V45.7679H47.3585C48.0152 45.7679 48.5239 45.8905 48.8848 46.1359C49.3827 46.4823 49.6316 46.9982 49.6316 47.6838C49.6316 48.0807 49.5342 48.4379 49.3394 48.7554C49.1445 49.0657 48.8379 49.293 48.4193 49.4374C48.1451 49.5312 47.8492 49.5781 47.5317 49.5781L49.8914 52.9878ZM46.7956 46.2008V49.1451H47.4884C48.0008 49.1451 48.4013 49.0152 48.6899 48.7554C48.9858 48.4956 49.1337 48.1348 49.1337 47.673C49.1337 47.0668 48.9208 46.6482 48.4951 46.4173C48.2425 46.273 47.8745 46.2008 47.391 46.2008H46.7956ZM59.8692 52.9878L58.9058 50.6172H55.8316L54.8683 52.9878H54.3487L57.3904 45.5514L60.3888 52.9878H59.8692ZM56.0048 50.1842H58.7326L57.3795 46.7637L56.0048 50.1842ZM71.0827 46.6122V47.24C70.7724 46.8792 70.4043 46.6013 69.9786 46.4065C69.56 46.2044 69.1162 46.1034 68.6472 46.1034C67.7307 46.1034 66.9622 46.4245 66.3416 47.0668C65.7209 47.709 65.4106 48.492 65.4106 49.4157C65.4106 49.9281 65.5081 50.3971 65.7029 50.8229C65.905 51.2487 66.1648 51.595 66.4823 51.862C66.807 52.1218 67.157 52.3239 67.5322 52.4682C67.9075 52.6053 68.2827 52.6739 68.658 52.6739C69.0621 52.6739 69.4807 52.5873 69.9136 52.4141C70.3466 52.2337 70.7363 51.9559 71.0827 51.5806V52.2084C70.4043 52.8074 69.6033 53.1069 68.6796 53.1069C67.6116 53.1069 66.7168 52.7424 65.9952 52.0136C65.2735 51.2847 64.9127 50.4116 64.9127 49.3941C64.9127 48.3549 65.2771 47.4745 66.006 46.7529C66.7348 46.0312 67.6188 45.6704 68.658 45.6704C69.6105 45.6704 70.4188 45.9843 71.0827 46.6122ZM79.826 46.2008H77.9534V52.9878H77.4771V46.2008H75.6044V45.7679H79.826V46.2008ZM84.74 45.7679H85.2163V52.9878H84.74V45.7679ZM91.4256 52.9878H90.9493V45.6921L97.011 52.0352V45.7679H97.4873V53.1718L91.4256 46.8287V52.9878ZM106.993 49.9569V49.524H110.024C110.024 50.4765 109.779 51.2667 109.288 51.8945C108.653 52.7027 107.747 53.1069 106.571 53.1069C105.503 53.1069 104.612 52.7569 103.897 52.0569C103.19 51.3569 102.837 50.4693 102.837 49.3941C102.837 48.3333 103.197 47.4493 103.919 46.7421C104.648 46.0276 105.543 45.6704 106.603 45.6704C107.433 45.6704 108.187 45.9302 108.866 46.4498C109.198 46.7096 109.486 47.0127 109.732 47.3591L109.353 47.6621C109.18 47.3663 108.949 47.0993 108.66 46.8611C108.054 46.356 107.365 46.1034 106.593 46.1034C105.669 46.1034 104.893 46.4245 104.265 47.0668C103.645 47.709 103.334 48.492 103.334 49.4157C103.334 50.325 103.641 51.0971 104.255 51.7322C104.868 52.36 105.636 52.6739 106.56 52.6739C107.13 52.6739 107.635 52.5548 108.076 52.3167C108.523 52.0713 108.855 51.7827 109.071 51.4507C109.36 51.0033 109.519 50.5054 109.548 49.9569H106.993Z" fill="black"/>
<mask id="mask0_56_320" style="mask-type:luminance" maskUnits="userSpaceOnUse" x="82" y="0" width="22" height="21">
<path d="M83.781 0L103.217 1.17188L102.081 20.0191L82.6445 18.8472L83.781 0Z" fill="white"/>
</mask>
<g mask="url(#mask0_56_320)">
<path d="M92.4987 15.7379C91.9146 14.9596 91.3759 14.315 90.9221 13.6152C89.4907 11.4289 89.6352 9.22729 90.9192 7.02017C92.0332 5.10629 93.4811 3.45563 94.9191 1.7975C95.2283 1.46523 95.5062 1.10512 95.7499 0.72168C94.6766 1.55527 93.5885 2.38107 92.5182 3.22345C90.9433 4.46643 89.3372 5.68513 88.0515 7.24728C87.563 7.8218 87.1735 8.47569 86.9004 9.18133C86.5198 10.2308 86.8703 11.2071 87.5659 12.0526C88.654 13.3751 90.0748 14.2625 91.4974 15.15C91.7948 15.3352 92.0969 15.5034 92.4987 15.7379Z" fill="black"/>
<path d="M91.8903 14.0871C92.5931 15.1252 93.1117 15.8522 94.0759 16.3172C94.7633 16.6483 95.4288 17.0281 96.118 17.361C96.2407 17.4202 96.4237 17.3587 96.6302 17.3505C96.6508 17.5219 96.7671 17.6795 96.8768 17.7345C97.1813 17.8769 97.2297 17.9179 97.4197 18.0015C98.9585 18.6771 100.499 19.3493 102.042 20.0182L102.087 19.9192C101.482 19.6137 100.861 19.3366 100.276 18.9945C98.6723 18.0598 97.078 17.1091 95.4926 16.1422C95.2377 15.9872 95.0477 15.862 94.8099 16.1563C94.7615 16.1939 94.7049 16.2192 94.6453 16.23C94.5851 16.2408 94.5237 16.2368 94.4653 16.2182C94.2511 16.1234 94.0434 16.0141 93.844 15.8911L93.8517 15.764C93.995 15.7623 94.1396 15.7659 94.2836 15.759C94.398 15.7521 94.5137 15.7315 94.627 15.7176C94.5945 15.607 94.5426 15.5029 94.4747 15.4102C93.8581 14.842 93.2238 14.3003 92.6126 13.7238C92.3966 13.5228 92.1376 13.2883 91.9305 13.0775C91.7375 12.9049 91.6065 12.7993 91.4224 12.5675L91.2077 12.3442C91.161 13.1173 91.4803 13.4814 91.8903 14.0871C91.7245 13.6685 92.4721 13.9653 92.6432 14.2912C92.6834 14.366 92.1293 14.0223 92.1234 14.1236C92.0255 14.1171 92.4314 14.5579 92.3435 14.5144C92.3405 14.5121 92.3382 14.5097 92.3352 14.5073C92.1812 14.3719 92.029 14.238 91.8903 14.0871Z" fill="black"/>
<path d="M91.891 14.0869C91.7252 13.6684 92.4727 13.9651 92.6438 14.2909C92.6839 14.3657 92.1299 14.022 92.124 14.1233C92.0261 14.1168 92.432 14.5575 92.3441 14.5141L92.3358 14.507C92.1818 14.3716 92.0296 14.2377 91.891 14.0869Z" fill="black"/>
<path d="M95.4923 16.1422C95.2374 15.9872 95.0474 15.862 94.8097 16.1563C94.7613 16.1939 94.7046 16.2192 94.645 16.23C94.5848 16.2408 94.5235 16.2368 94.4651 16.2182C94.2509 16.1234 94.0432 16.0141 93.8438 15.8911L93.8514 15.764C93.9948 15.7623 94.1394 15.7658 94.2833 15.759C94.3978 15.7521 94.5134 15.7315 94.6267 15.7176C94.5943 15.6069 94.5424 15.5029 94.4745 15.4102L95.4923 16.1422Z" fill="black"/>
<path d="M96.1182 17.3606C96.2409 17.4197 96.4237 17.3583 96.6302 17.3501C96.6509 17.5214 96.7671 17.679 96.8768 17.734L96.1182 17.3606Z" fill="black"/>
<path d="M87.3488 12.2134C86.4478 11.1332 86.4324 9.83394 86.4165 8.53642C86.4248 8.27875 86.3746 8.02261 86.2708 7.7873C86.1669 7.55199 86.0117 7.34365 85.8164 7.17784C85.6742 7.03511 85.4931 6.9387 85.296 6.90099C85.0989 6.86335 84.8954 6.88607 84.7113 6.96637C84.2469 7.17802 83.8138 7.45711 83.3164 7.73573C83.4686 7.81456 83.6291 7.87569 83.7943 7.918C84.3024 7.98137 84.5372 8.32826 84.7313 8.74866C85.0122 9.35523 85.2783 9.97472 85.6099 10.5516C86.0235 11.26 86.626 11.836 87.3488 12.2134Z" fill="black"/>
</g>
</svg>
